<?xml version="1.0" standalone="no"?>
<!DOCTYPE svg PUBLIC "-//W3C//DTD SVG 20010904//EN"
 "http://www.w3.org/TR/2001/REC-SVG-20010904/DTD/svg10.dtd">
<svg version="1.0" xmlns="http://www.w3.org/2000/svg"
 width="296.000000pt" height="296.000000pt" viewBox="0 0 296.000000 296.000000"
 preserveAspectRatio="xMidYMid meet">
<metadata>
Created by potrace 1.14, written by Peter Selinger 2001-2017
</metadata>
<g transform="translate(0.000000,296.000000) scale(0.100000,-0.100000)"
fill="#000000" stroke="none">
<path d="M2675 2728 c-159 -21 -290 -82 -390 -182 -109 -110 -160 -235 -171
-421 -3 -49 -7 -95 -9 -102 -3 -8 -30 -11 -82 -11 -43 0 -86 0 -95 -1 -17 -1
-18 -19 -18 -226 0 -207 1 -225 18 -226 9 -1 53 -2 97 -2 l80 -2 3 -667 2
-668 275 0 275 0 0 669 0 669 147 -1 148 -1 0 214 c1 118 -1 222 -3 230 -2 13
-27 15 -149 14 l-146 0 6 63 c13 131 73 188 205 192 37 1 69 6 72 11 3 5 5
109 5 232 l0 223 -105 1 c-58 0 -132 -3 -165 -8z"/>
<path d="M0 1348 l0 -1128 275 0 275 0 0 405 0 405 213 1 c116 0 226 2 242 4
17 2 54 7 83 10 156 18 347 115 454 230 190 204 231 579 91 835 -103 188 -287
308 -541 351 -44 8 -247 12 -579 13 l-513 2 0 -1128z m928 679 c150 -22 233
-126 228 -287 -5 -143 -65 -225 -193 -259 -33 -9 -310 -17 -395 -12 -17 1 -18
21 -18 280 0 254 2 280 17 283 28 5 315 1 361 -5z"/>
</g>
</svg>
